<svg width="142" height="50" viewBox="0 0 142 50" fill="none" xmlns="http://www.w3.org/2000/svg">
<g clip-path="url(#clip0_1_6901)">
<g clip-path="url(#clip1_1_6901)">
<rect x="1" y="0.5" width="140" height="49" rx="4.5" fill="#F9F9F9"/>
<rect x="1" y="0.5" width="140" height="49" rx="4.5" stroke="#DDDDDD"/>
<path d="M23.764 20.2H20.096V30H21.132V26.906H23.764C26.256 26.906 27.768 25.646 27.768 23.56C27.768 21.46 26.256 20.2 23.764 20.2ZM23.736 25.996H21.132V21.096H23.736C25.696 21.096 26.732 21.992 26.732 23.56C26.732 25.1 25.696 25.996 23.736 25.996ZM32.9671 30.07C35.1231 30.07 36.7051 28.502 36.7051 26.318C36.7051 24.134 35.1231 22.58 32.9671 22.58C30.8111 22.58 29.2151 24.134 29.2151 26.318C29.2151 28.502 30.8111 30.07 32.9671 30.07ZM32.9671 29.188C31.3991 29.188 30.2231 28.04 30.2231 26.318C30.2231 24.596 31.3991 23.448 32.9671 23.448C34.5351 23.448 35.6971 24.596 35.6971 26.318C35.6971 28.04 34.5351 29.188 32.9671 29.188ZM42.7284 22.58C41.5104 22.58 40.4884 23.112 39.8864 24.092V22.636H38.9344V32.716H39.9284V28.614C40.5444 29.566 41.5524 30.07 42.7284 30.07C44.8284 30.07 46.3964 28.558 46.3964 26.318C46.3964 24.092 44.8284 22.58 42.7284 22.58ZM42.6584 29.188C41.0904 29.188 39.9144 28.04 39.9144 26.318C39.9144 24.61 41.0904 23.448 42.6584 23.448C44.2124 23.448 45.4024 24.61 45.4024 26.318C45.4024 28.04 44.2124 29.188 42.6584 29.188ZM54.2647 22.636V26.5C54.2647 28.18 53.2987 29.174 51.7587 29.174C50.3587 29.174 49.5467 28.376 49.5467 26.808V22.636H48.5527V26.906C48.5527 29.02 49.7847 30.07 51.6607 30.07C52.8367 30.07 53.7887 29.552 54.3067 28.656V30H55.2587V22.636H54.2647ZM58.2426 30H59.2366V19.612H58.2426V30ZM64.7784 22.58C63.6164 22.58 62.5244 22.944 61.7824 23.574L62.2304 24.316C62.8324 23.784 63.7284 23.448 64.6804 23.448C66.0524 23.448 66.7664 24.134 66.7664 25.394V25.842H64.4284C62.3144 25.842 61.5864 26.794 61.5864 27.928C61.5864 29.202 62.6084 30.07 64.2744 30.07C65.4924 30.07 66.3604 29.608 66.8084 28.852V30H67.7604V25.436C67.7604 23.532 66.6824 22.58 64.7784 22.58ZM64.4284 29.286C63.2524 29.286 62.5664 28.754 62.5664 27.9C62.5664 27.144 63.0284 26.584 64.4564 26.584H66.7664V27.788C66.3744 28.754 65.5484 29.286 64.4284 29.286ZM71.6122 24.078V22.636H70.6602V30H71.6542V26.248C71.6542 24.512 72.5922 23.532 74.1322 23.532C74.2022 23.532 74.2862 23.546 74.3702 23.546V22.58C73.0122 22.58 72.0742 23.098 71.6122 24.078ZM76.874 21.026C77.294 21.026 77.602 20.704 77.602 20.298C77.602 19.92 77.28 19.612 76.874 19.612C76.468 19.612 76.146 19.934 76.146 20.312C76.146 20.704 76.468 21.026 76.874 21.026ZM76.37 30H77.364V22.636H76.37V30ZM83.8577 28.838C83.5777 29.09 83.1717 29.216 82.7657 29.216C81.9397 29.216 81.4917 28.74 81.4917 27.872V23.476H83.7317V22.636H81.4917V21.026H80.4977V22.636H79.1817V23.476H80.4977V27.928C80.4977 29.286 81.2677 30.07 82.6537 30.07C83.2277 30.07 83.8157 29.902 84.2077 29.552L83.8577 28.838ZM91.2885 22.636L88.5165 28.894L85.7445 22.636H84.7085L87.9985 29.986L87.6765 30.7C87.2565 31.624 86.8085 31.932 86.1505 31.932C85.6185 31.932 85.1705 31.736 84.8065 31.372L84.3445 32.114C84.7925 32.562 85.4505 32.786 86.1365 32.786C87.1865 32.786 87.9705 32.324 88.5865 30.882L92.2685 22.636H91.2885Z" fill="#737373"/>
<path d="M100.492 21L105.492 26L110.492 21L112.492 22L105.492 29L98.4922 22L100.492 21Z" fill="#737373"/>
</g>
</g>
<defs>
<clipPath id="clip0_1_6901">
<rect width="141" height="50" fill="white" transform="translate(0.5)"/>
</clipPath>
<clipPath id="clip1_1_6901">
<rect width="141" height="50" fill="white" transform="translate(0.5)"/>
</clipPath>
</defs>
</svg>
