<svg width="312" height="44" viewBox="0 0 312 44" fill="none" xmlns="http://www.w3.org/2000/svg">
<path d="M11.892 18.96L8.868 25.072H7.38L4.372 18.96V26H1.876V14.816H5.252L8.132 20.96L11.028 14.816H14.388V26H11.892V18.96ZM18.9216 21.696C18.9216 22.4 19.119 22.976 19.5136 23.424C19.919 23.8613 20.431 24.08 21.0496 24.08C21.679 24.08 22.191 23.8613 22.5856 23.424C22.991 22.976 23.1936 22.4 23.1936 21.696C23.1936 20.992 22.991 20.416 22.5856 19.968C22.191 19.52 21.679 19.296 21.0496 19.296C20.431 19.296 19.919 19.52 19.5136 19.968C19.119 20.416 18.9216 20.992 18.9216 21.696ZM25.6096 21.696C25.6096 22.944 25.1776 23.9947 24.3136 24.848C23.4496 25.7013 22.3616 26.128 21.0496 26.128C19.7483 26.128 18.6656 25.7013 17.8016 24.848C16.9376 23.9947 16.5056 22.944 16.5056 21.696C16.5056 20.448 16.9376 19.3973 17.8016 18.544C18.6656 17.68 19.7483 17.248 21.0496 17.248C22.3616 17.248 23.4496 17.68 24.3136 18.544C25.1776 19.3973 25.6096 20.448 25.6096 21.696ZM29.8923 21.2V26H27.4923V17.392H29.8923V18.352C30.6176 17.616 31.4336 17.248 32.3403 17.248C33.2469 17.248 34.0043 17.568 34.6123 18.208C35.2309 18.848 35.5403 19.7013 35.5403 20.768V26H33.1403V21.136C33.1403 19.8133 32.6549 19.152 31.6843 19.152C31.2043 19.152 30.7829 19.328 30.4203 19.68C30.0683 20.0213 29.8923 20.528 29.8923 21.2ZM40.55 19.12V22.976C40.55 23.3067 40.6353 23.568 40.806 23.76C40.9767 23.9413 41.1793 24.032 41.414 24.032C41.862 24.032 42.2407 23.8293 42.55 23.424L43.446 25.104C42.6993 25.7867 41.91 26.128 41.078 26.128C40.2567 26.128 39.558 25.856 38.982 25.312C38.4167 24.768 38.134 24.0267 38.134 23.088V19.12H37.126V17.392H38.134V14.816H40.55V17.392H42.63V19.12H40.55ZM47.2329 21.36V26H44.8329V14.128H47.2329V18.352C47.9582 17.616 48.7689 17.248 49.6649 17.248C50.5715 17.248 51.3342 17.568 51.9529 18.208C52.5715 18.848 52.8809 19.7013 52.8809 20.768V26H50.4809V21.296C50.4809 19.9733 49.9955 19.312 49.0249 19.312C48.5449 19.312 48.1235 19.488 47.7609 19.84C47.4089 20.1813 47.2329 20.688 47.2329 21.36ZM57.5516 26H55.1516V14.128H57.5516V26ZM61.4115 29.392C60.5688 29.392 59.7742 29.0507 59.0275 28.368L60.1155 26.592C60.5208 26.9867 60.9368 27.184 61.3635 27.184C61.5875 27.184 61.7795 27.072 61.9395 26.848C62.0995 26.6347 62.1795 26.4053 62.1795 26.16C62.1795 25.9147 61.0702 22.992 58.8515 17.392H61.4115L63.5075 22.752L65.6035 17.392H68.1635L64.1635 27.536C63.9288 28.1227 63.5608 28.576 63.0595 28.896C62.5688 29.2267 62.0195 29.392 61.4115 29.392Z" fill="#252B42"/>
<rect x="81" y="9.5" width="44" height="24" rx="12" fill="white"/>
<rect x="81" y="9.5" width="44" height="24" rx="12" stroke="#23A6F0"/>
<circle cx="94" cy="21.5" r="9" fill="#EBEBEB" stroke="#D0D0D0"/>
<path d="M141.692 26H139.196V21.584L135.324 14.816H138.028L140.444 18.976L142.86 14.816H145.564L141.692 21.584V26ZM154.083 24.752C153.112 25.6693 151.971 26.128 150.659 26.128C149.357 26.128 148.28 25.728 147.427 24.928C146.573 24.1173 146.147 23.0347 146.147 21.68C146.147 20.3253 146.579 19.248 147.443 18.448C148.317 17.648 149.347 17.248 150.531 17.248C151.715 17.248 152.717 17.6053 153.539 18.32C154.371 19.0347 154.787 20.016 154.787 21.264V22.544H148.515C148.589 23.0133 148.835 23.3973 149.251 23.696C149.667 23.9947 150.136 24.144 150.659 24.144C151.501 24.144 152.195 23.8613 152.739 23.296L154.083 24.752ZM152.355 20.832C152.301 20.32 152.109 19.9253 151.779 19.648C151.448 19.3707 151.043 19.232 150.563 19.232C150.093 19.232 149.661 19.376 149.267 19.664C148.872 19.952 148.643 20.3413 148.579 20.832H152.355ZM163.929 26H161.673V24.96C161.055 25.7387 160.287 26.128 159.369 26.128C158.463 26.128 157.7 25.8667 157.081 25.344C156.463 24.8107 156.153 24.1067 156.153 23.232C156.153 22.3467 156.473 21.6853 157.113 21.248C157.753 20.8107 158.628 20.592 159.737 20.592H161.529V20.544C161.529 19.6267 161.044 19.168 160.073 19.168C159.657 19.168 159.215 19.2533 158.745 19.424C158.287 19.584 157.897 19.7867 157.577 20.032L156.505 18.48C157.636 17.6587 158.927 17.248 160.377 17.248C161.423 17.248 162.276 17.5093 162.937 18.032C163.599 18.5547 163.929 19.3813 163.929 20.512V26ZM161.513 22.72V22.304H160.009C159.049 22.304 158.569 22.6027 158.569 23.2C158.569 23.5093 158.681 23.7493 158.905 23.92C159.14 24.08 159.471 24.16 159.897 24.16C160.324 24.16 160.697 24.032 161.017 23.776C161.348 23.5093 161.513 23.1573 161.513 22.72ZM170.745 19.504C170.031 19.504 169.497 19.76 169.145 20.272C168.793 20.7733 168.617 21.44 168.617 22.272V26H166.217V17.392H168.617V18.528C168.927 18.176 169.311 17.8773 169.769 17.632C170.239 17.3867 170.713 17.2587 171.193 17.248L171.209 19.504H170.745ZM175.295 26H172.895V14.128H175.295V26ZM179.155 29.392C178.313 29.392 177.518 29.0507 176.771 28.368L177.859 26.592C178.265 26.9867 178.681 27.184 179.107 27.184C179.331 27.184 179.523 27.072 179.683 26.848C179.843 26.6347 179.923 26.4053 179.923 26.16C179.923 25.9147 178.814 22.992 176.595 17.392H179.155L181.251 22.752L183.347 17.392H185.907L181.907 27.536C181.673 28.1227 181.305 28.576 180.803 28.896C180.313 29.2267 179.763 29.392 179.155 29.392Z" fill="#252B42"/>
<rect x="202.5" width="109" height="44" rx="22" fill="#B3E3FF"/>
<path d="M227.124 27.168C226.34 27.168 225.589 27.0653 224.87 26.86C224.152 26.6453 223.573 26.37 223.134 26.034L223.904 24.326C224.324 24.6247 224.819 24.872 225.388 25.068C225.967 25.2547 226.55 25.348 227.138 25.348C227.586 25.348 227.946 25.306 228.216 25.222C228.496 25.1287 228.702 25.0027 228.832 24.844C228.963 24.6853 229.028 24.5033 229.028 24.298C229.028 24.0367 228.926 23.8313 228.72 23.682C228.515 23.5233 228.244 23.3973 227.908 23.304C227.572 23.2013 227.199 23.108 226.788 23.024C226.387 22.9307 225.981 22.8187 225.57 22.688C225.169 22.5573 224.8 22.3893 224.464 22.184C224.128 21.9787 223.853 21.708 223.638 21.372C223.433 21.036 223.33 20.6067 223.33 20.084C223.33 19.524 223.48 19.0153 223.778 18.558C224.086 18.0913 224.544 17.7227 225.15 17.452C225.766 17.172 226.536 17.032 227.46 17.032C228.076 17.032 228.683 17.1067 229.28 17.256C229.878 17.396 230.405 17.6107 230.862 17.9L230.162 19.622C229.705 19.3607 229.248 19.1693 228.79 19.048C228.333 18.9173 227.885 18.852 227.446 18.852C227.008 18.852 226.648 18.9033 226.368 19.006C226.088 19.1087 225.888 19.244 225.766 19.412C225.645 19.5707 225.584 19.7573 225.584 19.972C225.584 20.224 225.687 20.4293 225.892 20.588C226.098 20.7373 226.368 20.8587 226.704 20.952C227.04 21.0453 227.409 21.1387 227.81 21.232C228.221 21.3253 228.627 21.4327 229.028 21.554C229.439 21.6753 229.812 21.8387 230.148 22.044C230.484 22.2493 230.755 22.52 230.96 22.856C231.175 23.192 231.282 23.6167 231.282 24.13C231.282 24.6807 231.128 25.1847 230.82 25.642C230.512 26.0993 230.05 26.468 229.434 26.748C228.828 27.028 228.058 27.168 227.124 27.168ZM237.498 27V25.53L237.358 25.208V22.576C237.358 22.1093 237.213 21.7453 236.924 21.484C236.644 21.2227 236.21 21.092 235.622 21.092C235.221 21.092 234.824 21.1573 234.432 21.288C234.049 21.4093 233.723 21.5773 233.452 21.792L232.668 20.266C233.079 19.9767 233.573 19.7527 234.152 19.594C234.731 19.4353 235.319 19.356 235.916 19.356C237.064 19.356 237.955 19.6267 238.59 20.168C239.225 20.7093 239.542 21.554 239.542 22.702V27H237.498ZM235.202 27.112C234.614 27.112 234.11 27.014 233.69 26.818C233.27 26.6127 232.948 26.3373 232.724 25.992C232.5 25.6467 232.388 25.2593 232.388 24.83C232.388 24.382 232.495 23.99 232.71 23.654C232.934 23.318 233.284 23.0567 233.76 22.87C234.236 22.674 234.857 22.576 235.622 22.576H237.624V23.85H235.86C235.347 23.85 234.992 23.934 234.796 24.102C234.609 24.27 234.516 24.48 234.516 24.732C234.516 25.012 234.623 25.236 234.838 25.404C235.062 25.5627 235.365 25.642 235.748 25.642C236.112 25.642 236.439 25.558 236.728 25.39C237.017 25.2127 237.227 24.956 237.358 24.62L237.694 25.628C237.535 26.1133 237.246 26.482 236.826 26.734C236.406 26.986 235.865 27.112 235.202 27.112ZM243.626 27L240.462 19.468H242.716L245.348 25.95H244.228L246.958 19.468H249.058L245.88 27H243.626ZM253.682 27.112C252.823 27.112 252.067 26.944 251.414 26.608C250.77 26.272 250.271 25.8147 249.916 25.236C249.561 24.648 249.384 23.9807 249.384 23.234C249.384 22.478 249.557 21.8107 249.902 21.232C250.257 20.644 250.737 20.1867 251.344 19.86C251.951 19.524 252.637 19.356 253.402 19.356C254.139 19.356 254.802 19.5147 255.39 19.832C255.987 20.14 256.459 20.588 256.804 21.176C257.149 21.7547 257.322 22.45 257.322 23.262C257.322 23.346 257.317 23.444 257.308 23.556C257.299 23.6587 257.289 23.7567 257.28 23.85H251.162V22.576H256.132L255.292 22.954C255.292 22.562 255.213 22.2213 255.054 21.932C254.895 21.6427 254.676 21.4187 254.396 21.26C254.116 21.092 253.789 21.008 253.416 21.008C253.043 21.008 252.711 21.092 252.422 21.26C252.142 21.4187 251.923 21.6473 251.764 21.946C251.605 22.2353 251.526 22.5807 251.526 22.982V23.318C251.526 23.7287 251.615 24.0927 251.792 24.41C251.979 24.718 252.235 24.956 252.562 25.124C252.898 25.2827 253.29 25.362 253.738 25.362C254.139 25.362 254.489 25.3013 254.788 25.18C255.096 25.0587 255.376 24.8767 255.628 24.634L256.79 25.894C256.445 26.286 256.011 26.5893 255.488 26.804C254.965 27.0093 254.363 27.112 253.682 27.112ZM262.595 27V25.53L266.375 21.96C266.674 21.6893 266.893 21.4467 267.033 21.232C267.173 21.0173 267.266 20.8213 267.313 20.644C267.369 20.4667 267.397 20.3033 267.397 20.154C267.397 19.762 267.262 19.4633 266.991 19.258C266.73 19.0433 266.342 18.936 265.829 18.936C265.418 18.936 265.036 19.0153 264.681 19.174C264.336 19.3327 264.042 19.58 263.799 19.916L262.147 18.852C262.52 18.292 263.043 17.8487 263.715 17.522C264.387 17.1953 265.162 17.032 266.039 17.032C266.767 17.032 267.402 17.1533 267.943 17.396C268.494 17.6293 268.918 17.9607 269.217 18.39C269.525 18.8193 269.679 19.3327 269.679 19.93C269.679 20.2473 269.637 20.5647 269.553 20.882C269.478 21.19 269.32 21.5167 269.077 21.862C268.844 22.2073 268.498 22.5947 268.041 23.024L264.905 25.978L264.471 25.152H270.001V27H262.595ZM274.469 27.168C273.787 27.168 273.111 27.0793 272.439 26.902C271.776 26.7153 271.207 26.454 270.731 26.118L271.627 24.382C272 24.6527 272.429 24.8673 272.915 25.026C273.409 25.1847 273.909 25.264 274.413 25.264C274.982 25.264 275.43 25.152 275.757 24.928C276.083 24.704 276.247 24.3913 276.247 23.99C276.247 23.738 276.181 23.514 276.051 23.318C275.92 23.122 275.687 22.9727 275.351 22.87C275.024 22.7673 274.562 22.716 273.965 22.716H271.459L271.963 17.2H277.941V19.02H272.775L273.951 17.984L273.601 21.918L272.425 20.882H274.497C275.467 20.882 276.247 21.0173 276.835 21.288C277.432 21.5493 277.866 21.9087 278.137 22.366C278.407 22.8233 278.543 23.3413 278.543 23.92C278.543 24.4987 278.398 25.0353 278.109 25.53C277.819 26.0153 277.371 26.412 276.765 26.72C276.167 27.0187 275.402 27.168 274.469 27.168ZM280.94 27L287.632 17.2H289.298L282.606 27H280.94ZM281.794 22.492C281.318 22.492 280.898 22.3847 280.534 22.17C280.17 21.946 279.881 21.6333 279.666 21.232C279.461 20.8213 279.358 20.3407 279.358 19.79C279.358 19.2393 279.461 18.7633 279.666 18.362C279.881 17.9607 280.17 17.648 280.534 17.424C280.898 17.2 281.318 17.088 281.794 17.088C282.27 17.088 282.69 17.2 283.054 17.424C283.418 17.648 283.703 17.9607 283.908 18.362C284.114 18.7633 284.216 19.2393 284.216 19.79C284.216 20.3407 284.114 20.8213 283.908 21.232C283.703 21.6333 283.418 21.946 283.054 22.17C282.69 22.3847 282.27 22.492 281.794 22.492ZM281.794 21.344C282.102 21.344 282.35 21.218 282.536 20.966C282.723 20.7047 282.816 20.3127 282.816 19.79C282.816 19.2673 282.723 18.88 282.536 18.628C282.35 18.3667 282.102 18.236 281.794 18.236C281.496 18.236 281.248 18.3667 281.052 18.628C280.866 18.88 280.772 19.2673 280.772 19.79C280.772 20.3033 280.866 20.6907 281.052 20.952C281.248 21.2133 281.496 21.344 281.794 21.344ZM288.444 27.112C287.978 27.112 287.558 27.0047 287.184 26.79C286.82 26.566 286.536 26.2533 286.33 25.852C286.125 25.4413 286.022 24.9607 286.022 24.41C286.022 23.8593 286.125 23.3833 286.33 22.982C286.536 22.5807 286.82 22.268 287.184 22.044C287.558 21.82 287.978 21.708 288.444 21.708C288.93 21.708 289.354 21.82 289.718 22.044C290.082 22.268 290.367 22.5807 290.572 22.982C290.778 23.3833 290.88 23.8593 290.88 24.41C290.88 24.9607 290.778 25.4413 290.572 25.852C290.367 26.2533 290.082 26.566 289.718 26.79C289.354 27.0047 288.93 27.112 288.444 27.112ZM288.444 25.964C288.752 25.964 289 25.838 289.186 25.586C289.373 25.3247 289.466 24.9327 289.466 24.41C289.466 23.8967 289.373 23.5093 289.186 23.248C289 22.9867 288.752 22.856 288.444 22.856C288.146 22.856 287.898 22.9867 287.702 23.248C287.516 23.5 287.422 23.8873 287.422 24.41C287.422 24.9327 287.516 25.3247 287.702 25.586C287.898 25.838 288.146 25.964 288.444 25.964Z" fill="#23A6F0"/>
</svg>
